<svg width="140" height="15" viewBox="0 0 140 15" fill="none" xmlns="http://www.w3.org/2000/svg">
<path d="M7.102 4.098C7.102 4.91 6.822 5.58667 6.262 6.128C5.71133 6.66 4.86667 6.926 3.728 6.926H1.852V11H0.578V1.242H3.728C4.82933 1.242 5.66467 1.508 6.234 2.04C6.81267 2.572 7.102 3.258 7.102 4.098ZM3.728 5.876C4.43733 5.876 4.96 5.722 5.296 5.414C5.632 5.106 5.8 4.66733 5.8 4.098C5.8 2.894 5.10933 2.292 3.728 2.292H1.852V5.876H3.728ZM12.0314 11.126C11.3128 11.126 10.6594 10.9627 10.0714 10.636C9.49276 10.3093 9.03542 9.84733 8.69942 9.25C8.37276 8.64333 8.20942 7.94333 8.20942 7.15C8.20942 6.366 8.37742 5.67533 8.71342 5.078C9.05876 4.47133 9.52542 4.00933 10.1134 3.692C10.7014 3.36533 11.3594 3.202 12.0874 3.202C12.8154 3.202 13.4734 3.36533 14.0614 3.692C14.6494 4.00933 15.1114 4.46667 15.4474 5.064C15.7928 5.66133 15.9654 6.35667 15.9654 7.15C15.9654 7.94333 15.7881 8.64333 15.4334 9.25C15.0881 9.84733 14.6168 10.3093 14.0194 10.636C13.4221 10.9627 12.7594 11.126 12.0314 11.126ZM12.0314 10.006C12.4888 10.006 12.9181 9.89867 13.3194 9.684C13.7208 9.46933 14.0428 9.14733 14.2854 8.718C14.5374 8.28867 14.6634 7.766 14.6634 7.15C14.6634 6.534 14.5421 6.01133 14.2994 5.582C14.0568 5.15267 13.7394 4.83533 13.3474 4.63C12.9554 4.41533 12.5308 4.308 12.0734 4.308C11.6068 4.308 11.1774 4.41533 10.7854 4.63C10.4028 4.83533 10.0948 5.15267 9.86142 5.582C9.62809 6.01133 9.51142 6.534 9.51142 7.15C9.51142 7.77533 9.62342 8.30267 9.84742 8.732C10.0808 9.16133 10.3888 9.48333 10.7714 9.698C11.1541 9.90333 11.5741 10.006 12.0314 10.006ZM27.8605 3.328L25.4665 11H24.1505L22.3025 4.91L20.4545 11H19.1385L16.7305 3.328H18.0325L19.7965 9.768L21.7005 3.328H23.0025L24.8645 9.782L26.6005 3.328H27.8605ZM36.1249 6.87C36.1249 7.11267 36.1109 7.36933 36.0829 7.64H29.9509C29.9975 8.396 30.2542 8.98867 30.7209 9.418C31.1969 9.838 31.7709 10.048 32.4429 10.048C32.9935 10.048 33.4509 9.922 33.8149 9.67C34.1882 9.40867 34.4495 9.06333 34.5989 8.634H35.9709C35.7655 9.37133 35.3549 9.97333 34.7389 10.44C34.1229 10.8973 33.3575 11.126 32.4429 11.126C31.7149 11.126 31.0615 10.9627 30.4829 10.636C29.9135 10.3093 29.4655 9.84733 29.1389 9.25C28.8122 8.64333 28.6489 7.94333 28.6489 7.15C28.6489 6.35667 28.8075 5.66133 29.1249 5.064C29.4422 4.46667 29.8855 4.00933 30.4549 3.692C31.0335 3.36533 31.6962 3.202 32.4429 3.202C33.1709 3.202 33.8149 3.36067 34.3749 3.678C34.9349 3.99533 35.3642 4.434 35.6629 4.994C35.9709 5.54467 36.1249 6.17 36.1249 6.87ZM34.8089 6.604C34.8089 6.11867 34.7015 5.70333 34.4869 5.358C34.2722 5.00333 33.9782 4.73733 33.6049 4.56C33.2409 4.37333 32.8349 4.28 32.3869 4.28C31.7429 4.28 31.1922 4.48533 30.7349 4.896C30.2869 5.30667 30.0302 5.876 29.9649 6.604H34.8089ZM39.0805 4.574C39.3045 4.13533 39.6218 3.79467 40.0325 3.552C40.4525 3.30933 40.9612 3.188 41.5585 3.188V4.504H41.2225C39.7945 4.504 39.0805 5.27867 39.0805 6.828V11H37.8065V3.328H39.0805V4.574ZM50.0292 6.87C50.0292 7.11267 50.0152 7.36933 49.9872 7.64H43.8552C43.9018 8.396 44.1585 8.98867 44.6252 9.418C45.1012 9.838 45.6752 10.048 46.3472 10.048C46.8978 10.048 47.3552 9.922 47.7192 9.67C48.0925 9.40867 48.3538 9.06333 48.5032 8.634H49.8752C49.6698 9.37133 49.2592 9.97333 48.6432 10.44C48.0272 10.8973 47.2618 11.126 46.3472 11.126C45.6192 11.126 44.9658 10.9627 44.3872 10.636C43.8178 10.3093 43.3698 9.84733 43.0432 9.25C42.7165 8.64333 42.5532 7.94333 42.5532 7.15C42.5532 6.35667 42.7118 5.66133 43.0292 5.064C43.3465 4.46667 43.7898 4.00933 44.3592 3.692C44.9378 3.36533 45.6005 3.202 46.3472 3.202C47.0752 3.202 47.7192 3.36067 48.2792 3.678C48.8392 3.99533 49.2685 4.434 49.5672 4.994C49.8752 5.54467 50.0292 6.17 50.0292 6.87ZM48.7132 6.604C48.7132 6.11867 48.6058 5.70333 48.3912 5.358C48.1765 5.00333 47.8825 4.73733 47.5092 4.56C47.1452 4.37333 46.7392 4.28 46.2912 4.28C45.6472 4.28 45.0965 4.48533 44.6392 4.896C44.1912 5.30667 43.9345 5.876 43.8692 6.604H48.7132ZM51.2348 7.136C51.2348 6.352 51.3935 5.666 51.7108 5.078C52.0281 4.48067 52.4621 4.01867 53.0128 3.692C53.5728 3.36533 54.1981 3.202 54.8888 3.202C55.4861 3.202 56.0415 3.342 56.5548 3.622C57.0681 3.89267 57.4601 4.252 57.7308 4.7V0.64H59.0188V11H57.7308V9.558C57.4788 10.0153 57.1055 10.3933 56.6108 10.692C56.1161 10.9813 55.5375 11.126 54.8748 11.126C54.1935 11.126 53.5728 10.958 53.0128 10.622C52.4621 10.286 52.0281 9.81467 51.7108 9.208C51.3935 8.60133 51.2348 7.91067 51.2348 7.136ZM57.7308 7.15C57.7308 6.57133 57.6141 6.06733 57.3808 5.638C57.1475 5.20867 56.8301 4.882 56.4288 4.658C56.0368 4.42467 55.6028 4.308 55.1268 4.308C54.6508 4.308 54.2168 4.42 53.8248 4.644C53.4328 4.868 53.1201 5.19467 52.8868 5.624C52.6535 6.05333 52.5368 6.55733 52.5368 7.136C52.5368 7.724 52.6535 8.23733 52.8868 8.676C53.1201 9.10533 53.4328 9.43667 53.8248 9.67C54.2168 9.894 54.6508 10.006 55.1268 10.006C55.6028 10.006 56.0368 9.894 56.4288 9.67C56.8301 9.43667 57.1475 9.10533 57.3808 8.676C57.6141 8.23733 57.7308 7.72867 57.7308 7.15ZM66.1782 4.756C66.4395 4.29867 66.8222 3.92533 67.3262 3.636C67.8302 3.34667 68.4042 3.202 69.0482 3.202C69.7388 3.202 70.3595 3.36533 70.9102 3.692C71.4608 4.01867 71.8948 4.48067 72.2122 5.078C72.5295 5.666 72.6882 6.352 72.6882 7.136C72.6882 7.91067 72.5295 8.60133 72.2122 9.208C71.8948 9.81467 71.4562 10.286 70.8962 10.622C70.3455 10.958 69.7295 11.126 69.0482 11.126C68.3855 11.126 67.8022 10.9813 67.2982 10.692C66.8035 10.4027 66.4302 10.034 66.1782 9.586V11H64.9042V0.64H66.1782V4.756ZM71.3862 7.136C71.3862 6.55733 71.2695 6.05333 71.0362 5.624C70.8028 5.19467 70.4855 4.868 70.0842 4.644C69.6922 4.42 69.2582 4.308 68.7822 4.308C68.3155 4.308 67.8815 4.42467 67.4802 4.658C67.0882 4.882 66.7708 5.21333 66.5282 5.652C66.2948 6.08133 66.1782 6.58067 66.1782 7.15C66.1782 7.72867 66.2948 8.23733 66.5282 8.676C66.7708 9.10533 67.0882 9.43667 67.4802 9.67C67.8815 9.894 68.3155 10.006 68.7822 10.006C69.2582 10.006 69.6922 9.894 70.0842 9.67C70.4855 9.43667 70.8028 9.10533 71.0362 8.676C71.2695 8.23733 71.3862 7.724 71.3862 7.136ZM80.9731 3.328L76.3531 14.612H75.0371L76.5491 10.916L73.4551 3.328H74.8691L77.2771 9.544L79.6571 3.328H80.9731ZM92.3002 4.28C92.1229 3.95333 91.8662 3.706 91.5302 3.538C91.2035 3.36067 90.8162 3.272 90.3682 3.272C89.5935 3.272 88.9729 3.52867 88.5062 4.042C88.0395 4.546 87.8062 5.22267 87.8062 6.072C87.8062 6.97733 88.0489 7.68667 88.5342 8.2C89.0289 8.704 89.7055 8.956 90.5642 8.956C91.1522 8.956 91.6469 8.80667 92.0482 8.508C92.4589 8.20933 92.7575 7.78 92.9442 7.22H89.9062V5.456H95.1142V7.682C94.9369 8.27933 94.6335 8.83467 94.2042 9.348C93.7842 9.86133 93.2475 10.2767 92.5942 10.594C91.9409 10.9113 91.2035 11.07 90.3822 11.07C89.4115 11.07 88.5435 10.86 87.7782 10.44C87.0222 10.0107 86.4295 9.418 86.0002 8.662C85.5802 7.906 85.3702 7.04267 85.3702 6.072C85.3702 5.10133 85.5802 4.238 86.0002 3.482C86.4295 2.71667 87.0222 2.124 87.7782 1.704C88.5342 1.27467 89.3975 1.06 90.3682 1.06C91.5442 1.06 92.5335 1.34467 93.3362 1.914C94.1482 2.48333 94.6849 3.272 94.9462 4.28H92.3002ZM98.8343 3.09V5.078H102.04V6.926H98.8343V9.082H102.46V11H96.4403V1.172H102.46V3.09H98.8343ZM115.144 1.172V11H112.75V5.106L110.552 11H108.62L106.408 5.092V11H104.014V1.172H106.842L109.6 7.976L112.33 1.172H115.144ZM119.218 1.172V7.052C119.218 7.64 119.363 8.09267 119.652 8.41C119.941 8.72733 120.366 8.886 120.926 8.886C121.486 8.886 121.915 8.72733 122.214 8.41C122.513 8.09267 122.662 7.64 122.662 7.052V1.172H125.056V7.038C125.056 7.91533 124.869 8.65733 124.496 9.264C124.123 9.87067 123.619 10.328 122.984 10.636C122.359 10.944 121.659 11.098 120.884 11.098C120.109 11.098 119.414 10.9487 118.798 10.65C118.191 10.342 117.711 9.88467 117.356 9.278C117.001 8.662 116.824 7.91533 116.824 7.038V1.172H119.218ZM135.529 11H133.135L129.131 4.938V11H126.737V1.172H129.131L133.135 7.262V1.172H135.529V11ZM139.658 1.172V11H137.264V1.172H139.658Z" fill="#8B8CA7"/>
</svg>
