<svg width="11" height="12" viewBox="0 0 11 12" fill="none" xmlns="http://www.w3.org/2000/svg">
<path d="M10.0926 0.818117L0.58393 0.818117C0.487659 0.818517 0.393294 0.853693 0.310991 0.919859C0.228688 0.986025 0.161565 1.08067 0.116846 1.19362C0.0721264 1.30657 0.051505 1.43353 0.0572012 1.56085C0.0628975 1.68817 0.0946954 1.81102 0.149173 1.91617L4.90351 11.0142C5.10055 11.3914 5.57492 11.3914 5.77249 11.0142L10.5268 1.91617C10.5819 1.81124 10.6141 1.68833 10.6201 1.5608C10.6261 1.43327 10.6057 1.30599 10.5609 1.19281C10.5161 1.07962 10.4488 0.984852 10.3663 0.918794C10.2837 0.852735 10.189 0.817916 10.0926 0.818117Z" fill="#814BF6" />
</svg>
