<svg width="11" height="12" viewBox="0 0 11 12" fill="none" xmlns="http://www.w3.org/2000/svg">
<path d="M0.584837 11.2971H10.0935C10.1898 11.2967 10.2841 11.2615 10.3664 11.1953C10.4487 11.1292 10.5159 11.0345 10.5606 10.9216C10.6053 10.8086 10.6259 10.6816 10.6202 10.5543C10.6145 10.427 10.5827 10.3042 10.5283 10.199L5.77393 1.10103C5.57689 0.723811 5.10251 0.723811 4.90494 1.10103L0.150608 10.199C0.0955761 10.3039 0.0633044 10.4269 0.0572987 10.5544C0.0512929 10.6819 0.0717828 10.8092 0.116542 10.9224C0.161302 11.0356 0.228619 11.1303 0.31118 11.1964C0.39374 11.2624 0.488387 11.2973 0.584837 11.2971Z" fill="#845FDF"/>
</svg>
